inDegrees=yes
name=ik_lifting_orientations
DataType=double
version=3
OpenSimVersion=4.5-2024-01-10-34fd6af
endheader
time	pelvis_tilt	pelvis_list	pelvis_rotation	pelvis_tx	pelvis_ty	pelvis_tz	hip_flexion_r	hip_adduction_r	hip_rotation_r	knee_angle_r	knee_angle_r_beta	ankle_angle_r	subtalar_angle_r	mtp_angle_r	hip_flexion_l	hip_adduction_l	hip_rotation_l	knee_angle_l	knee_angle_l_beta	ankle_angle_l	subtalar_angle_l	mtp_angle_l	lumbar_extension	lumbar_bending	lumbar_rotation	arm_flex_r	arm_add_r	arm_rot_r	elbow_flex_r	pro_sup_r	wrist_flex_r	wrist_dev_r	arm_flex_l	arm_add_l	arm_rot_l	elbow_flex_l	pro_sup_l	wrist_flex_l	wrist_dev_l
1.93	0.01975796542702703	-9.244874980998736	-97.38875257907249	0	0.9399999998679526	0	44.48947415095873	-10.05340703522858	0	59.23601813761915	1.033863552272534	-5.010466551104488	0	0	44.48947415095873	-10.05340703522858	0	59.23601813761915	1.033863552272534	-5.010466551104488	0	0	-0.9832167759735005	-1.235746264435585	-6.359634571265056	36.40518318102025	-25.93780148215416	43.00623507323098	149.7821368529004	2.657142875049725	0	0	0	-11.80066978315176	0	87.37241806068869	2.657142875049725	0	0
1.94	0.009161639584703219	-9.118635922524286	-97.31410596064921	0	0.9399999998679526	0	44.4955391582014	-10.05183996373858	0	59.24488866887979	1.034018372249433	-5.010096499350581	0	0	44.4955391582014	-10.05183996373858	0	59.24488866887979	1.034018372249433	-5.010096499350581	0	0	-0.9945108784332221	-1.256135908382747	-6.452714230642025	38.58721802503509	-22.96384516076049	44.43983366646641	146.0534377048032	2.633109308099354	0	0	0	-11.82353461933834	0	87.39618246551383	2.633109308099354	0	0
1.95	-0.03980666186068533	-9.099239408341761	-97.39798961231645	0	0.9399999998679526	0	44.50182682650856	-10.05025225217011	0	59.25410608229237	1.034179246462	-5.009724457763835	0	0	44.50182682650856	-10.05025225217011	0	59.25410608229237	1.034179246462	-5.009724457763835	0	0	-1.174745379360957	-1.214541491182521	-6.17374099437538	40.88910314127602	-20.20127294495001	45.77519516932764	141.7390027693338	2.608097022185824	0	0	0	-11.84739342770711	0	87.42091463633727	2.608097022185824	0	0
1.96	-0.05199937416730945	-8.912683552893906	-97.2854833677942	0	0.9399999998679526	0	44.51007081395384	-10.04824083536228	0	59.26623927525098	1.034391010627908	-5.009258737528747	0	0	44.51007081395384	-10.04824083536228	0	59.26623927525098	1.034391010627908	-5.009258737528747	0	0	-1.221083167257299	-1.241844022301445	-6.222329637548001	43.4422629017305	-16.70047115442472	47.10873194451345	136.0074692775986	2.575121024920939	0	0	0	-11.87896573230917	0	87.45352134676827	2.575121024920939	0	0
1.97	-0.05230629892177525	-8.86373106970685	-97.10821526137093	0	0.9399999998679526	0	44.522712236903	-10.04535847521864	0	59.28507977951437	1.03471983946004	-5.0086066333934	0	0	44.522712236903	-10.04535847521864	0	59.28507977951437	1.03471983946004	-5.0086066333934	0	0	-1.47311181535951	-1.302437175731565	-6.293768855592264	46.10786887112336	-13.46424754186643	47.99182264351967	129.3996533472479	2.523984904434788	0	0	0	-11.92830128252244	0	87.50408485581076	2.523984904434788	0	0
1.98	-0.07181380360180517	-8.58817783099258	-97.04795026028324	0	0.9399999998679526	0	44.53550113309743	-10.04256867213574	0	59.30420517344642	1.035053640554895	-5.007984352192659	0	0	44.53550113309743	-10.04256867213574	0	59.30420517344642	1.035053640554895	-5.007984352192659	0	0	-1.501388147780924	-1.295650646986238	-6.170217856801099	48.46316478638523	-10.59286451037712	48.5160186140081	123.6021413047309	2.471853230872761	0	0	0	-11.978862998826	0	87.5556327988962	2.471853230872761	0	0
1.99	-0.1036380241265646	-8.272369992085217	-97.00102965275813	0	0.9399999998679526	0	44.54860848776156	-10.0398301396834	0	59.32386658046262	1.035396796842902	-5.007381774750473	0	0	44.54860848776156	-10.0398301396834	0	59.32386658046262	1.035396796842902	-5.007381774750473	0	0	-1.648745874824751	-1.324818563886864	-5.975519099065767	50.9963857043932	-7.507910972261674	48.80068954281634	117.5252324427769	2.418015776981218	0	0	0	-12.03135290621492	0	87.60886745026237	2.418015776981218	0	0
2	-0.1699929821543046	-8.086896762959514	-96.88013602796288	0	0.9399999998679526	0	44.56876291855576	-10.03591998264982	0	59.35431474080487	1.03592821749205	-5.006542711569416	0	0	44.56876291855576	-10.03591998264982	0	59.35431474080487	1.03592821749205	-5.006542711569416	0	0	-1.892944978177458	-1.318350068990386	-5.864778869418386	53.38517353848746	-4.74055978012237	48.75712600327503	110.7706572684675	2.334229443677633	0	0	0	-12.11370509214719	0	87.69171571527198	2.334229443677633	0	0
2.01	-0.2281776077792737	-7.826053845443355	-96.47066314158901	0	0.9399999998679526	0	44.58660979867095	-10.03263502069084	0	59.38126160686323	1.036398529027862	-5.005848502362367	0	0	44.58660979867095	-10.03263502069084	0	59.38126160686323	1.036398529027862	-5.005848502362367	0	0	-2.016849685902404	-1.283845188500708	-6.038042498279951	55.58529357467614	-2.016451656958608	48.63401395235537	104.0031170573412	2.259306424247696	0	0	0	-12.18784632410785	0	87.76579994207125	2.259306424247696	0	0
2.02	-0.2571533456844852	-7.569707437290716	-96.11236123075888	0	0.9399999998679526	0	44.58681538378473	-10.03257852808778	0	59.38150383885471	1.036402756773667	-5.00583530699241	0	0	44.58681538378473	-10.03257852808778	0	59.38150383885471	1.036402756773667	-5.00583530699241	0	0	-2.287473325218975	-1.338888629450323	-6.213055219601229	56.90007703881562	-0.1265929353733224	48.66375414675726	100.3270980417963	2.258523398340909	0	0	0	-12.18856415394148	0	87.76657419689741	2.258523398340909	0	0
